<svg width="22" height="26" viewBox="0 0 22 26" fill="none" xmlns="http://www.w3.org/2000/svg">
<path fill-rule="evenodd" clip-rule="evenodd" d="M21.9613 6.79294C21.9417 6.58794 21.8703 6.39129 21.7537 6.22149C21.6372 6.05169 21.4794 5.91433 21.2951 5.82231L11.5852 0.950882C11.4163 0.86556 11.2297 0.820906 11.0405 0.820483C10.8512 0.82006 10.6645 0.863881 10.4952 0.948446L0.719456 5.81987C0.357753 6.00255 0.108092 6.35208 0.0569423 6.75397C0.0411102 6.8721 -1.3375 18.6171 10.4587 25.0316C10.64 25.1305 10.8436 25.1814 11.0501 25.1795C11.2567 25.1775 11.4593 25.1229 11.6388 25.0206C22.9734 18.6159 22.0076 7.27278 21.9613 6.79294ZM11.0286 22.5569C2.67412 17.6733 2.33312 9.94963 2.42689 7.69294L11.0384 3.40243L19.5609 7.67832C19.567 9.95572 18.9751 17.7171 11.0286 22.5569Z" fill="black"/>
</svg>
