<svg width="24" height="22" viewBox="0 0 24 22" fill="none" xmlns="http://www.w3.org/2000/svg">
<path id="Vector 10 (Stroke)" fill-rule="evenodd" clip-rule="evenodd" d="M12.4928 2.74607C12.1869 2.57276 11.8126 2.57276 11.5067 2.74607L1.49277 8.42065C1.01227 8.69294 0.402015 8.52414 0.129731 8.04364C-0.142552 7.56314 0.0262414 6.95289 0.506741 6.68061L10.5207 1.00602C11.4382 0.486112 12.5613 0.48611 13.4788 1.00602L23.4928 6.68061C23.9733 6.95289 24.1421 7.56314 23.8698 8.04364C23.5975 8.52414 22.9872 8.69293 22.5067 8.42065L12.4928 2.74607ZM3.93309 9.48396C4.48537 9.48396 4.93309 9.93168 4.93309 10.484V18.384C4.93309 18.9362 5.3808 19.384 5.93309 19.384H18.0664C18.6187 19.384 19.0664 18.9362 19.0664 18.384V10.484C19.0664 9.93168 19.5141 9.48396 20.0664 9.48396C20.6187 9.48396 21.0664 9.93168 21.0664 10.484V18.384C21.0664 20.0408 19.7233 21.384 18.0664 21.384H5.93309C4.27623 21.384 2.93309 20.0408 2.93309 18.384V10.484C2.93309 9.93168 3.3808 9.48396 3.93309 9.48396Z" fill="black"/>
</svg>
