<svg width="30" height="26" viewBox="0 0 30 26" fill="none" xmlns="http://www.w3.org/2000/svg">
<path d="M5.2 9.5C5.2 9.5 1.5999 10.9 1 15.8M24.8 9.5C24.8 9.5 28.4001 10.9 29 15.8M10.8 9.5C10.8 9.5 14.16 10.3169 15 14.4C15.84 10.3169 19.2 9.5 19.2 9.5M12.2 20C12.2 20 9.26 20.525 8 24.2M17.8 20C17.8 20 20.74 20.525 22 24.2" stroke="black" stroke-width="2" stroke-linecap="round"/>
<path d="M15 21.4C16.933 21.4 18.5 19.833 18.5 17.9C18.5 15.967 16.933 14.4 15 14.4C13.067 14.4 11.5 15.967 11.5 17.9C11.5 19.833 13.067 21.4 15 21.4Z" stroke="black" stroke-width="2" stroke-linecap="round" stroke-linejoin="round"/>
<path d="M22.0008 10.2C24.3204 10.2 26.2008 8.31959 26.2008 6C26.2008 3.6804 24.3204 1.8 22.0008 1.8C19.6812 1.8 17.8008 3.6804 17.8008 6C17.8008 8.31959 19.6812 10.2 22.0008 10.2Z" stroke="black" stroke-width="2" stroke-linecap="round" stroke-linejoin="round"/>
<path d="M8.00078 10.2C10.3204 10.2 12.2008 8.31959 12.2008 6C12.2008 3.6804 10.3204 1.8 8.00078 1.8C5.68119 1.8 3.80078 3.6804 3.80078 6C3.80078 8.31959 5.68119 10.2 8.00078 10.2Z" stroke="black" stroke-width="2" stroke-linecap="round" stroke-linejoin="round"/>
</svg>
