<svg width="22" height="22" viewBox="0 0 22 22" fill="none" xmlns="http://www.w3.org/2000/svg">
<g id="Group 3">
<path id="Vector" d="M2.75 0H19.25C20.768 0 22 1.232 22 2.75V19.25C22 19.9793 21.7103 20.6788 21.1945 21.1945C20.6788 21.7103 19.9793 22 19.25 22H2.75C2.02065 22 1.32118 21.7103 0.805456 21.1945C0.289731 20.6788 0 19.9793 0 19.25V2.75C0 1.232 1.232 0 2.75 0ZM1.94744 2.34029V14.7929V19.6847C1.94744 19.9015 2.12343 20.0775 2.34029 20.0775L19.6597 20.0526C19.7639 20.0526 19.8638 20.0112 19.9375 19.9375C20.0112 19.8638 20.0526 19.7639 20.0526 19.6597V14.7929V2.34029C20.0526 2.2361 20.0112 2.13618 19.9375 2.0625C19.8638 1.98883 19.7639 1.94744 19.6597 1.94744H2.34029C2.2361 1.94744 2.13618 1.98883 2.0625 2.0625C1.98883 2.13618 1.94744 2.2361 1.94744 2.34029Z" fill="black"/>
<path id="Vector 44" d="M1.58203 13.4179C8.96893 10.0286 13.1206 10.2145 20.5104 13.4179" stroke="black" stroke-width="2.25"/>
</g>
</svg>
