<svg xmlns="http://www.w3.org/2000/svg" width="121" height="184" viewBox="0 0 121 184" fill="none">
  <path d="M23.0596 170.263C-6.56048 147.384 13.5087 118.253 36.842 94.6179L93.5431 82.7661C100.152 91.8696 114.797 116.034 120.503 139.861C127.069 167.274 64.9222 202.598 23.0596 170.263Z" fill="#0043CA"/>
  <path d="M36.8129 96.5538L93.5565 82.6421C95.6757 86.0659 98.6205 91.3045 101.832 97.7635C92.2836 101.473 64.117 108.699 27.8379 107.925C30.8977 103.8 33.9465 99.9594 36.8129 96.5538Z" fill="white"/>
  <path d="M5.82227 39.5813C1.85384 46.9364 1.82965 67.9693 2.3136 77.5663C40.183 72.4452 115.269 58.719 112.655 44.7831C110.042 30.8472 93.0954 19.0565 84.9488 14.9031C84.1422 10.1852 81.0772 0.604308 75.2697 0.0236451C69.4623 -0.557018 66.0746 9.70136 65.1067 14.9031C46.0389 15.0967 27.5599 23.9357 20.7039 28.331C18.4051 18.5323 0.377813 12.7256 0.0148468 19.1371C-0.275526 24.2663 3.76547 34.9037 5.82227 39.5813Z" fill="#0036A2"/>
  <path d="M111.567 38.371C95.8779 10.4599 63.3736 30.4273 56.5176 40.1857C45.3463 35.6291 4.61352 30.266 1.22572 64.9848C-4.25142 121.116 51.7991 106.357 78.0536 96.9213C104.308 87.4855 130.199 71.5172 111.567 38.371Z" fill="#0043CA"/>
  <ellipse cx="34.3745" cy="68.7348" rx="20.81" ry="20.8071" fill="#0036A2"/>
  <ellipse cx="86.4096" cy="56.3957" rx="20.81" ry="20.8071" fill="#0036A2"/>
  <ellipse cx="84.2132" cy="56.3964" rx="19.8421" ry="19.8393" fill="#FEFEFE"/>
  <ellipse cx="37.5179" cy="67.7671" rx="19.8421" ry="19.8393" fill="#FEFEFE"/>
  <path d="M73.7527 69.5999C66.6938 66.5716 52.7441 71.9553 52.7441 78.1803C52.7441 84.4054 69.2149 97.0236 73.7527 96.0141C78.2906 95.0046 80.8116 72.6283 73.7527 69.5999Z" fill="#FFC061"/>
  <path d="M73.7562 69.5999C71.5346 68.6468 68.6304 68.527 65.6934 69.0043C68.8391 70.8504 75.0337 78.7399 74.6465 95.529C78.5911 92.0676 80.3379 72.4236 73.7562 69.5999Z" fill="#D8A252"/>
  <ellipse cx="10.0365" cy="11.2515" rx="10.0365" ry="11.2515" transform="matrix(0.988476 -0.151376 0.151418 0.98847 27.127 60.1609)" fill="#0043CA"/>
  <ellipse cx="10.0365" cy="11.2515" rx="10.0365" ry="11.2515" transform="matrix(0.988476 -0.151376 0.151418 0.98847 73.5859 49.7529)" fill="#0043CA"/>
  <ellipse cx="6.80018" cy="8.73167" rx="6.80018" ry="8.73167" transform="matrix(0.959125 -0.282981 0.283055 0.959104 30.1992 63.2678)" fill="#404040"/>
  <ellipse cx="6.80018" cy="8.73167" rx="6.80018" ry="8.73167" transform="matrix(0.959125 -0.282981 0.283055 0.959104 76.6582 52.866)" fill="#404040"/>
  <ellipse cx="87.8231" cy="56.1528" rx="3.50867" ry="3.3872" fill="#FEFEFE"/>
  <ellipse cx="41.6493" cy="67.2634" rx="3.50867" ry="3.3872" fill="#FEFEFE"/>
</svg>