<svg width="24" height="14" viewBox="0 0 24 14" fill="none" xmlns="http://www.w3.org/2000/svg">
<path d="M6.31579 13.3158C7.7709 13.3138 9.18083 12.8102 10.3079 11.8898C11.4349 10.9694 12.2101 9.68853 12.5027 8.26315H15.1579V10.7895H17.6842V8.26315H20.2105V12.0526H22.7368V8.26315H24V5.73684H12.5027C12.2101 4.31146 11.4349 3.03059 10.3079 2.11018C9.18083 1.18978 7.7709 0.686149 6.31579 0.684204C2.83326 0.684204 0 3.51747 0 6.99999C0 10.4825 2.83326 13.3158 6.31579 13.3158ZM6.31579 3.21052C8.40505 3.21052 10.1053 4.91073 10.1053 6.99999C10.1053 9.08926 8.40505 10.7895 6.31579 10.7895C4.22653 10.7895 2.52632 9.08926 2.52632 6.99999C2.52632 4.91073 4.22653 3.21052 6.31579 3.21052Z" fill="black"/>
</svg>
