<svg width="20" height="20" viewBox="0 0 20 20" fill="none" xmlns="http://www.w3.org/2000/svg">
<path d="M2.91224 19.207C3.29024 19.585 3.79224 19.793 4.32624 19.793C4.86024 19.793 5.36224 19.585 5.74024 19.207L10.0762 14.871C10.7944 15.0925 11.5417 15.2048 12.2932 15.204C13.2783 15.207 14.2541 15.0146 15.1642 14.6378C16.0743 14.261 16.9006 13.7074 17.5952 13.009C18.6439 11.9633 19.3588 10.6299 19.6493 9.17767C19.9398 7.72546 19.7929 6.2197 19.2272 4.851L18.6572 3.463L14.4132 7.706L12.2922 5.584L16.5352 1.341L15.1462 0.770003C14.24 0.396938 13.2693 0.205645 12.2892 0.207003C10.2862 0.207003 8.40324 0.987003 6.98824 2.403C6.02122 3.36681 5.33649 4.57694 5.00826 5.9022C4.68003 7.22746 4.72083 8.61728 5.12624 9.921L0.790237 14.257C0.41554 14.6322 0.205078 15.1408 0.205078 15.671C0.205078 16.2013 0.41554 16.7098 0.790237 17.085L2.91224 19.207ZM7.46024 10.416L7.20624 9.8C6.7909 8.79636 6.68285 7.69201 6.89576 6.6269C7.10868 5.56179 7.63298 4.58385 8.40224 3.817C8.9739 3.24162 9.66658 2.80082 10.4299 2.52665C11.1933 2.25249 12.0081 2.15183 12.8152 2.232L9.46224 5.585L14.4112 10.535L17.7662 7.18C17.8445 7.98761 17.7427 8.80252 17.4683 9.5661C17.1939 10.3297 16.7537 11.0229 16.1792 11.596C14.6292 13.146 12.2152 13.623 10.1952 12.792L9.58024 12.537L4.32624 17.793H4.32724L4.32624 18.793V17.793L2.20424 15.671L7.46024 10.416Z" fill="black"/>
</svg>
