<svg width="44" height="44" viewBox="0 0 44 44" fill="none" xmlns="http://www.w3.org/2000/svg">
<g clip-path="url(#clip0_76_1179)">
<path d="M32.8278 28.7692C32.422 29.616 31.9416 30.3954 31.3851 31.112C30.6265 32.0889 30.0054 32.7651 29.5267 33.1406C28.7847 33.757 27.9896 34.0727 27.1383 34.0906C26.5271 34.0906 25.79 33.9335 24.932 33.6149C24.0713 33.2977 23.2802 33.1406 22.5569 33.1406C21.7983 33.1406 20.9847 33.2977 20.1145 33.6149C19.2429 33.9335 18.5408 34.0996 18.004 34.1161C17.1876 34.1475 16.3738 33.8228 15.5615 33.1406C15.0431 32.7322 14.3947 32.0321 13.6178 31.0402C12.7844 29.981 12.0991 28.7528 11.5623 27.3525C10.9874 25.84 10.6992 24.3754 10.6992 22.9574C10.6992 21.3332 11.0878 19.9323 11.8661 18.7583C12.4778 17.8154 13.2915 17.0716 14.31 16.5255C15.3285 15.9794 16.429 15.7012 17.6141 15.6834C18.2625 15.6834 19.1129 15.8645 20.1696 16.2206C21.2234 16.5779 21.9 16.759 22.1966 16.759C22.4184 16.759 23.17 16.5472 24.4443 16.1249C25.6492 15.7332 26.6662 15.571 27.4994 15.6349C29.7569 15.7995 31.453 16.6033 32.581 18.0515C30.5619 19.1564 29.5631 20.7041 29.583 22.6895C29.6012 24.2359 30.2224 25.5228 31.4431 26.5446C31.9963 27.0189 32.6141 27.3854 33.3015 27.6457C33.1524 28.0362 32.9951 28.4102 32.8278 28.7692ZM27.6501 10.3665C27.6501 11.5786 27.1598 12.7103 26.1826 13.7578C25.0033 15.0031 23.5768 15.7227 22.03 15.6092C22.0103 15.4638 21.9989 15.3107 21.9989 15.1499C21.9989 13.9863 22.5597 12.741 23.5556 11.7228C24.0529 11.2072 24.6853 10.7786 25.4521 10.4366C26.2174 10.0998 26.9412 9.91349 27.6219 9.88159C27.6418 10.0436 27.6501 10.2057 27.6501 10.3664V10.3665Z" fill="#FEFEFE"/>
</g>
<defs>
<clipPath id="clip0_76_1179">
<rect x="8" y="9.35474" width="28" height="25.2903" rx="10" fill="white"/>
</clipPath>
</defs>
</svg>
