<svg width="44" height="44" viewBox="0 0 44 44" fill="none" xmlns="http://www.w3.org/2000/svg">
<g clip-path="url(#clip0_76_1180)">
<path fill-rule="evenodd" clip-rule="evenodd" d="M35.1998 22.0778C35.1998 14.7447 29.29 8.80005 21.9998 8.80005C14.7096 8.80005 8.7998 14.7447 8.7998 22.0778C8.7998 28.7052 13.6269 34.1982 19.9373 35.1943V25.916H16.5857V22.0778H19.9373V19.1526C19.9373 15.8248 21.908 13.9867 24.9231 13.9867C26.3673 13.9867 27.8779 14.246 27.8779 14.246V17.5136H26.2134C24.5737 17.5136 24.0623 18.5371 24.0623 19.5871V22.0778H27.7232L27.138 25.916H24.0623V35.1943C30.3728 34.1982 35.1998 28.7052 35.1998 22.0778Z" fill="#FEFEFE"/>
</g>
<defs>
<clipPath id="clip0_76_1180">
<rect width="26.4" height="26.4" fill="white" transform="translate(8.7998 8.80005)"/>
</clipPath>
</defs>
</svg>
