<svg width="44" height="44" viewBox="0 0 44 44" fill="none" xmlns="http://www.w3.org/2000/svg">
<path fill-rule="evenodd" clip-rule="evenodd" d="M31.504 22.225C31.504 21.523 31.441 20.848 31.324 20.2H22V24.0295H27.328C27.0985 25.267 26.401 26.3155 25.3525 27.0174V29.5015H28.552C30.424 27.778 31.504 25.24 31.504 22.225Z" fill="#4285F4"/>
<path fill-rule="evenodd" clip-rule="evenodd" d="M21.9993 31.9001C24.6723 31.9001 26.9133 31.0136 28.5513 29.5016L25.3518 27.0176C24.4653 27.6116 23.3313 27.9626 21.9993 27.9626C19.4208 27.9626 17.2383 26.2211 16.4598 23.8811H13.1523V26.4461C14.7813 29.6816 18.1293 31.9001 21.9993 31.9001Z" fill="#34A853"/>
<path fill-rule="evenodd" clip-rule="evenodd" d="M16.4601 23.881C16.2621 23.287 16.1496 22.6525 16.1496 22C16.1496 21.3475 16.2621 20.713 16.4601 20.119V17.554H13.1526C12.4821 18.8905 12.0996 20.4025 12.0996 22C12.0996 23.5975 12.4821 25.1095 13.1526 26.446L16.4601 23.881Z" fill="#FBBC05"/>
<path fill-rule="evenodd" clip-rule="evenodd" d="M21.9993 16.0376C23.4528 16.0376 24.7578 16.5371 25.7838 17.5181L28.6233 14.6786C26.9088 13.0811 24.6678 12.1001 21.9993 12.1001C18.1293 12.1001 14.7813 14.3186 13.1523 17.5541L16.4598 20.1191C17.2383 17.7791 19.4208 16.0376 21.9993 16.0376Z" fill="#EA4335"/>
</svg>
